<?xml version="1.0" encoding="utf-8"?>
<!-- Generator: Adobe Illustrator 16.0.0, SVG Export Plug-In . SVG Version: 6.00 Build 0)  -->
<!DOCTYPE svg PUBLIC "-//W3C//DTD SVG 1.1//EN" "http://www.w3.org/Graphics/SVG/1.1/DTD/svg11.dtd">
<svg version="1.1" id="Capa_1" xmlns="http://www.w3.org/2000/svg" xmlns:xlink="http://www.w3.org/1999/xlink" x="0px" y="0px"
	 width="896.025px" height="896.025px" viewBox="0 0 896.025 896.025" enable-background="new 0 0 896.025 896.025"
	 xml:space="preserve">
<g>
	<path id="settings_1_" fill="#878787" d="M459.598,446.193l-2.476-0.414c-0.18-0.736-0.441-1.439-0.783-2.096l1.585-1.965
		c0.338-0.416,0.321-1.013-0.034-1.415l-0.984-1.107c-0.356-0.401-0.949-0.486-1.4-0.2l-2.119,1.331
		c-0.932-0.651-1.986-1.131-3.124-1.411l-0.415-2.489c-0.087-0.528-0.542-0.915-1.079-0.915h-1.484
		c-0.534,0-0.991,0.387-1.077,0.915l-0.417,2.49c-0.941,0.23-1.823,0.602-2.628,1.092l-2.014-1.438
		c-0.434-0.31-1.03-0.261-1.409,0.117l-1.049,1.05c-0.377,0.378-0.427,0.975-0.115,1.409l1.44,2.018
		c-0.485,0.799-0.853,1.676-1.083,2.609l-2.504,0.419c-0.526,0.086-0.914,0.542-0.914,1.079v1.482c0,0.535,0.388,0.992,0.914,1.079
		l2.504,0.417c0.188,0.769,0.464,1.501,0.829,2.181l-1.578,1.955c-0.336,0.415-0.322,1.014,0.033,1.414l0.985,1.108
		c0.357,0.401,0.949,0.485,1.401,0.2l2.148-1.351c0.909,0.623,1.938,1.079,3.041,1.351l0.417,2.49
		c0.085,0.527,0.542,0.914,1.077,0.914h1.484c0.537,0,0.992-0.387,1.079-0.914l0.415-2.49c0.931-0.228,1.801-0.593,2.599-1.074
		l2.098,1.498c0.435,0.313,1.03,0.263,1.408-0.117l1.051-1.048c0.377-0.378,0.428-0.975,0.114-1.409l-1.494-2.094
		c0.486-0.803,0.857-1.682,1.086-2.618l2.477-0.413c0.527-0.087,0.913-0.544,0.913-1.079v-1.483
		C460.513,446.735,460.126,446.279,459.598,446.193z M448.053,452.699c-2.589,0-4.688-2.099-4.688-4.687s2.099-4.688,4.688-4.688
		c2.588,0,4.688,2.1,4.688,4.688S450.641,452.699,448.053,452.699z"/>
</g>
</svg>
